<?xml version="1.0" encoding="UTF-8" standalone="no"?>
<!-- Created with Inkscape (http://www.inkscape.org/) -->

<svg
   xmlns:dc="http://purl.org/dc/elements/1.1/"
   xmlns:cc="http://creativecommons.org/ns#"
   xmlns:rdf="http://www.w3.org/1999/02/22-rdf-syntax-ns#"
   xmlns:svg="http://www.w3.org/2000/svg"
   xmlns="http://www.w3.org/2000/svg"
   xmlns:sodipodi="http://sodipodi.sourceforge.net/DTD/sodipodi-0.dtd"
   xmlns:inkscape="http://www.inkscape.org/namespaces/inkscape"
   width="16"
   height="16"
   viewBox="0 0 16 16"
   id="svg2"
   version="1.1"
   inkscape:version="0.91 r13725"
   sodipodi:docname="icon.svg"
   inkscape:export-filename="C:\Users\Peter\Desktop\icon.png"
   inkscape:export-xdpi="90"
   inkscape:export-ydpi="90">
  <defs
     id="defs4" />
  <sodipodi:namedview
     id="base"
     pagecolor="#ffffff"
     bordercolor="#666666"
     borderopacity="1.0"
     inkscape:pageopacity="0.0"
     inkscape:pageshadow="2"
     inkscape:zoom="11.313709"
     inkscape:cx="8.2653994"
     inkscape:cy="-13.088818"
     inkscape:document-units="px"
     inkscape:current-layer="g3383"
     showgrid="false"
     inkscape:window-width="1280"
     inkscape:window-height="961"
     inkscape:window-x="1272"
     inkscape:window-y="-8"
     inkscape:window-maximized="1"
     units="px"
     fit-margin-top="0"
     fit-margin-left="0"
     fit-margin-right="0"
     fit-margin-bottom="0" />
  <metadata
     id="metadata7">
    <rdf:RDF>
      <cc:Work
         rdf:about="">
        <dc:format>image/svg+xml</dc:format>
        <dc:type
           rdf:resource="http://purl.org/dc/dcmitype/StillImage" />
        <dc:title></dc:title>
      </cc:Work>
    </rdf:RDF>
  </metadata>
  <g
     inkscape:label="Layer 1"
     inkscape:groupmode="layer"
     id="layer1"
     transform="translate(-0.10714318,-0.13341928)">
    <g
       id="g3383"
       transform="matrix(0.37758479,0,0,0.35909866,118.40075,147.21163)">
      <g
         id="g3337"
         transform="translate(-314.38118,-409.57605)">
        <g
           id="g3339">
          <path
             id="path3341"
             d="M 42.313,20.889 22.592,1.166 C 21.815,0.389 20.797,0 19.779,0 18.761,0 17.742,0.389 16.966,1.166 l -10.8,10.798 c -1.554,1.554 -1.554,4.122 0,5.676 l 1.79,1.839 4.129,0 -3.854,-3.904 c -0.27,-0.271 -0.31,-0.61 -0.31,-0.774 0,-0.164 0.04,-0.491 0.31,-0.761 l 1.426,-1.382 6.777,6.821 6.501,0 L 12.907,9.401 19.03,3.254 c 0.27,-0.27 0.585,-0.321 0.749,-0.321 0.164,0 0.479,0.034 0.749,0.303 l 19.722,19.72 c 0.271,0.271 0.312,0.583 0.312,0.748 0,0.164 -0.07,0.478 -0.341,0.749 l -1.118,1.091 0,4.129 3.184,-3.155 c 1.553,-1.557 1.581,-4.075 0.026,-5.629 z"
             inkscape:connector-curvature="0"
             style="fill:#a0a0a0;fill-opacity:1" />
          <path
             id="path3343"
             d="m 33.06,21.328 -27.893,0 c -2.197,0 -4.076,1.77 -4.076,3.967 l 0,10.55 35.898,0 0,-10.55 c 0,-2.197 -1.732,-3.967 -3.929,-3.967 z M 10.839,32.253 c -0.779,0 -1.484,-0.31 -2.004,-0.81 -0.52,0.5 -1.226,0.81 -2.003,0.81 -1.598,0 -2.895,-1.295 -2.895,-2.896 0,-1.599 1.296,-2.895 2.895,-2.895 0.778,0 1.484,0.309 2.003,0.809 0.52,-0.5 1.225,-0.809 2.004,-0.809 1.599,0 2.895,1.296 2.895,2.895 0,1.601 -1.296,2.896 -2.895,2.896 z"
             inkscape:connector-curvature="0"
             style="fill:#a0a0a0;fill-opacity:1" />
          <path
             id="path3345"
             d="m 1.091,40.566 c 0,2.197 1.878,3.99 4.076,3.99 l 27.893,0 c 2.197,0 3.93,-1.793 3.93,-3.99 l 0,-0.234 -35.899,0 0,0.234 z"
             inkscape:connector-curvature="0"
             style="fill:#a0a0a0;fill-opacity:1" />
          <path
             style="fill:#a0a0a0;fill-opacity:1"
             inkscape:connector-curvature="0"
             d="M 42.313,20.889 22.592,1.166 C 21.815,0.389 20.797,0 19.779,0 18.761,0 17.742,0.389 16.966,1.166 l -10.8,10.798 c -1.554,1.554 -1.554,4.122 0,5.676 l 1.79,1.839 4.129,0 -3.854,-3.904 c -0.27,-0.271 -0.31,-0.61 -0.31,-0.774 0,-0.164 0.04,-0.491 0.31,-0.761 l 1.426,-1.382 6.777,6.821 6.501,0 L 12.907,9.401 19.03,3.254 c 0.27,-0.27 0.585,-0.321 0.749,-0.321 0.164,0 0.479,0.034 0.749,0.303 l 19.722,19.72 c 0.271,0.271 0.312,0.583 0.312,0.748 0,0.164 -0.07,0.478 -0.341,0.749 l -1.118,1.091 0,4.129 3.184,-3.155 c 1.553,-1.557 1.581,-4.075 0.026,-5.629 z"
             id="path4267" />
          <path
             style="fill:#a0a0a0;fill-opacity:1"
             inkscape:connector-curvature="0"
             d="m 33.06,21.328 -27.893,0 c -2.197,0 -4.076,1.77 -4.076,3.967 l 0,10.55 35.898,0 0,-10.55 c 0,-2.197 -1.732,-3.967 -3.929,-3.967 z M 10.839,32.253 c -0.779,0 -1.484,-0.31 -2.004,-0.81 -0.52,0.5 -1.226,0.81 -2.003,0.81 -1.598,0 -2.895,-1.295 -2.895,-2.896 0,-1.599 1.296,-2.895 2.895,-2.895 0.778,0 1.484,0.309 2.003,0.809 0.52,-0.5 1.225,-0.809 2.004,-0.809 1.599,0 2.895,1.296 2.895,2.895 0,1.601 -1.296,2.896 -2.895,2.896 z"
             id="path4269" />
          <path
             style="fill:#a0a0a0;fill-opacity:1"
             inkscape:connector-curvature="0"
             d="m 1.091,40.566 c 0,2.197 1.878,3.99 4.076,3.99 l 27.893,0 c 2.197,0 3.93,-1.793 3.93,-3.99 l 0,-0.234 -35.899,0 0,0.234 z"
             id="path4271" />
        </g>
      </g>
      <g
         id="g3347"
         style="fill:#a0a0a0;fill-opacity:1" />
      <g
         id="g3349"
         style="fill:#a0a0a0;fill-opacity:1" />
      <g
         id="g3351"
         style="fill:#a0a0a0;fill-opacity:1" />
      <g
         id="g3353"
         style="fill:#a0a0a0;fill-opacity:1" />
      <g
         id="g3355"
         style="fill:#a0a0a0;fill-opacity:1" />
      <g
         id="g3357"
         style="fill:#a0a0a0;fill-opacity:1" />
      <g
         id="g3359"
         style="fill:#a0a0a0;fill-opacity:1" />
      <g
         id="g3361"
         style="fill:#a0a0a0;fill-opacity:1" />
      <g
         id="g3363"
         style="fill:#a0a0a0;fill-opacity:1" />
      <g
         id="g3365"
         style="fill:#a0a0a0;fill-opacity:1" />
      <g
         id="g3367"
         style="fill:#a0a0a0;fill-opacity:1" />
      <g
         id="g3369"
         style="fill:#a0a0a0;fill-opacity:1" />
      <g
         id="g3371"
         style="fill:#a0a0a0;fill-opacity:1" />
      <g
         id="g3373"
         style="fill:#a0a0a0;fill-opacity:1" />
      <g
         id="g3375"
         style="fill:#a0a0a0;fill-opacity:1" />
      <g
         style="fill:#a0a0a0;fill-opacity:1"
         id="g4273" />
      <g
         style="fill:#a0a0a0;fill-opacity:1"
         id="g4275" />
      <g
         style="fill:#a0a0a0;fill-opacity:1"
         id="g4277" />
      <g
         style="fill:#a0a0a0;fill-opacity:1"
         id="g4279" />
      <g
         style="fill:#a0a0a0;fill-opacity:1"
         id="g4281" />
      <g
         style="fill:#a0a0a0;fill-opacity:1"
         id="g4283" />
      <g
         style="fill:#a0a0a0;fill-opacity:1"
         id="g4285" />
      <g
         style="fill:#a0a0a0;fill-opacity:1"
         id="g4287" />
      <g
         style="fill:#a0a0a0;fill-opacity:1"
         id="g4289" />
      <g
         style="fill:#a0a0a0;fill-opacity:1"
         id="g4291" />
      <g
         style="fill:#a0a0a0;fill-opacity:1"
         id="g4293" />
      <g
         style="fill:#a0a0a0;fill-opacity:1"
         id="g4295" />
      <g
         style="fill:#a0a0a0;fill-opacity:1"
         id="g4297" />
      <g
         style="fill:#a0a0a0;fill-opacity:1"
         id="g4299" />
      <g
         style="fill:#a0a0a0;fill-opacity:1"
         id="g4301" />
    </g>
  </g>
</svg>
